<?xml version="1.0" encoding="UTF-8"?>
<svg id="Layer_1" data-name="Layer 1" xmlns="http://www.w3.org/2000/svg" viewBox="0 0 829.44 284.52">
  <g>
    <path d="M160.71,147.19c9.07,0,16.41-8.19,16.41-18.28s-7.35-18.28-16.41-18.28c-3.04,0-5.88.94-8.33,2.55.48-.09.97-.15,1.48-.15,4.71,0,8.53,4.25,8.53,9.5s-3.82,9.5-8.53,9.5-8.5-4.23-8.52-9.46c-.66,1.98-1.04,4.11-1.04,6.35,0,10.1,7.35,18.28,16.41,18.28Z"/>
    <path d="M355.14,55.08s-16.11,9.74-40.96,11.62c-29.61,2.24-48.46,1.43-62-.25-12.41-5.17-26.26-8.06-40.88-8.06s-27.42,2.68-39.46,7.48c-13.8,2.04-33.42,3.31-66.28.83-24.85-1.88-40.96-11.62-40.96-11.62,4.04,33.5,25.31,60.21,50.37,80.56.06.67.15,1.33.23,1.98-.17,2.08-.26,4.17-.26,6.29,0,47.24,43.14,85.53,96.36,85.53s96.36-38.29,96.36-85.53c0-3.42-.23-6.8-.67-10.12,24.09-20.11,44.22-46.22,48.15-78.72ZM160.71,94.82c16.63,0,30.12,15.26,30.12,34.08s-13.49,34.08-30.12,34.08-30.12-15.26-30.12-34.08,13.49-34.08,30.12-34.08ZM259.84,94.82c16.63,0,30.12,15.26,30.12,34.08s-13.49,34.08-30.12,34.08-30.12-15.26-30.12-34.08,13.49-34.08,30.12-34.08ZM275.52,194.22c-17.06,13.99-39.87,21.69-64.21,21.69s-47.14-7.7-64.21-21.69c-10.53-8.63-18.01-18.99-22.02-30.21,8.44,11.77,21.26,19.28,35.63,19.28,17.8,0,33.24-11.53,40.9-28.4-.37,8.69-2.78,16.76-6.69,23.62,9.25,3.32,14.87,7.37,14.87,7.37,0,0,5.78-4.05,15.03-7.37-4.21-7.37-6.68-16.14-6.74-25.58,7.33,17.93,23.26,30.35,41.75,30.35,16.85,0,31.57-10.33,39.6-25.73-3.19,13.7-11.4,26.4-23.92,36.66Z"/>
    <path d="M259.84,146.16c9.07,0,16.41-7.72,16.41-17.25s-7.35-17.25-16.41-17.25c-3.04,0-5.88.89-8.33,2.4.48-.09.97-.14,1.48-.14,4.71,0,8.53,4.01,8.53,8.96s-3.82,8.96-8.53,8.96-8.5-3.99-8.52-8.92c-.66,1.87-1.04,3.88-1.04,5.99,0,9.53,7.35,17.25,16.41,17.25Z"/>
  </g>
  <g>
    <g>
      <path d="M502.28,121.11c0,8.73-1.51,16.85-4.52,24.36-3.01,7.51-7.25,14.04-12.72,19.59-5.47,5.55-12.05,9.9-19.76,13.05-7.71,3.15-16.25,4.72-25.64,4.72s-17.95-1.57-25.68-4.72c-7.73-3.15-14.35-7.5-19.84-13.05-5.5-5.55-9.75-12.08-12.76-19.59-3.01-7.51-4.52-15.63-4.52-24.36s1.5-16.85,4.52-24.36c3.01-7.51,7.26-14.03,12.76-19.55,5.5-5.52,12.11-9.86,19.84-13.01,7.73-3.15,16.29-4.72,25.68-4.72s17.94,1.59,25.64,4.76c7.71,3.18,14.29,7.53,19.76,13.05,5.47,5.52,9.71,12.04,12.72,19.55,3.01,7.51,4.52,15.6,4.52,24.27ZM473.62,121.11c0-5.96-.77-11.34-2.32-16.11-1.55-4.78-3.77-8.82-6.67-12.14-2.9-3.31-6.45-5.85-10.65-7.62-4.2-1.77-8.98-2.65-14.33-2.65s-10.23.88-14.46,2.65c-4.23,1.77-7.79,4.31-10.69,7.62-2.9,3.31-5.12,7.36-6.67,12.14-1.55,4.78-2.32,10.15-2.32,16.11s.77,11.42,2.32,16.2c1.55,4.78,3.77,8.82,6.67,12.14,2.9,3.31,6.46,5.84,10.69,7.58,4.23,1.74,9.04,2.61,14.46,2.61s10.13-.87,14.33-2.61c4.2-1.74,7.75-4.27,10.65-7.58,2.9-3.31,5.12-7.36,6.67-12.14,1.55-4.78,2.32-10.18,2.32-16.2Z"/>
      <path d="M680.08,60.8l-37.28,120.71h-25.35l-22.7-74.81c-.44-1.16-.86-2.44-1.24-3.85-.39-1.41-.77-2.89-1.16-4.43-.39,1.55-.77,3.02-1.16,4.43-.39,1.41-.8,2.69-1.24,3.85l-23.03,74.81h-25.35l-37.28-120.71h23.53c2.43,0,4.46.55,6.09,1.66,1.63,1.11,2.69,2.57,3.19,4.39l16.57,62.96c.5,1.99.99,4.16,1.49,6.5.5,2.35.99,4.79,1.49,7.33.99-5.19,2.21-9.8,3.65-13.84l19.55-62.96c.5-1.55,1.56-2.94,3.19-4.18,1.63-1.24,3.6-1.86,5.92-1.86h8.28c2.43,0,4.39.57,5.88,1.7,1.49,1.13,2.62,2.58,3.4,4.35l19.39,62.96c1.44,3.87,2.65,8.26,3.65,13.17.44-2.49.9-4.82,1.37-7,.47-2.18.95-4.24,1.45-6.17l16.57-62.96c.44-1.6,1.49-3.01,3.15-4.23,1.66-1.21,3.65-1.82,5.97-1.82h22.04Z"/>
      <path d="M764.83,159.14v22.37h-72.74V60.8h28v98.34h44.74Z"/>
    </g>
    <g>
      <path d="M401.03,207.6c0,1.69-.29,3.27-.88,4.72-.58,1.46-1.41,2.72-2.47,3.8-1.06,1.08-2.34,1.92-3.83,2.53-1.49.61-3.15.92-4.97.92s-3.48-.31-4.98-.92c-1.5-.61-2.78-1.45-3.85-2.53-1.07-1.08-1.89-2.34-2.47-3.8-.58-1.46-.88-3.03-.88-4.72s.29-3.27.88-4.72c.58-1.46,1.41-2.72,2.47-3.79,1.07-1.07,2.35-1.91,3.85-2.52,1.5-.61,3.16-.92,4.98-.92s3.48.31,4.97.92c1.49.62,2.77,1.46,3.83,2.53,1.06,1.07,1.88,2.33,2.47,3.79s.88,3.03.88,4.71ZM395.47,207.6c0-1.16-.15-2.2-.45-3.12-.3-.93-.73-1.71-1.29-2.35-.56-.64-1.25-1.14-2.06-1.48s-1.74-.51-2.78-.51-1.98.17-2.8.51-1.51.84-2.07,1.48c-.56.64-.99,1.43-1.29,2.35s-.45,1.97-.45,3.12.15,2.21.45,3.14.73,1.71,1.29,2.35c.56.64,1.25,1.13,2.07,1.47s1.75.51,2.8.51,1.96-.17,2.78-.51,1.5-.83,2.06-1.47c.56-.64.99-1.43,1.29-2.35.3-.93.45-1.97.45-3.14Z"/>
      <path d="M419.35,202.65l-6.46,16.66h-4.53l-6.46-16.66h4.15c.35,0,.65.08.89.25.24.17.4.37.49.62l2.31,7.47c.2.61.38,1.2.54,1.78.16.58.29,1.16.41,1.73.24-1.16.56-2.33.98-3.52l2.41-7.47c.09-.25.25-.45.48-.62.24-.17.51-.25.84-.25h3.95Z"/>
      <path d="M424.5,211.88c.16,1.39.58,2.4,1.27,3.03s1.57.94,2.65.94c.58,0,1.08-.07,1.49-.21.42-.14.79-.29,1.12-.47s.63-.33.9-.47c.27-.14.56-.21.86-.21.4,0,.7.14.9.43l1.45,1.78c-.51.59-1.07,1.07-1.66,1.44-.59.37-1.21.66-1.83.87-.63.21-1.25.35-1.88.43-.63.08-1.22.12-1.79.12-1.17,0-2.26-.19-3.29-.57-1.02-.38-1.92-.94-2.68-1.69-.77-.75-1.37-1.68-1.82-2.79s-.67-2.41-.67-3.89c0-1.11.19-2.17.57-3.16.38-1,.93-1.87,1.64-2.62.71-.75,1.57-1.34,2.59-1.78,1.01-.44,2.16-.66,3.43-.66,1.1,0,2.11.17,3.03.51.92.34,1.7.84,2.36,1.49s1.17,1.45,1.54,2.4c.37.95.55,2.02.55,3.22,0,.38-.02.68-.05.92-.03.24-.09.42-.18.56-.09.14-.2.24-.35.29-.15.05-.33.08-.55.08h-9.61ZM430.77,208.98c0-.4-.05-.78-.15-1.16-.1-.37-.27-.71-.5-1-.23-.29-.53-.53-.91-.71-.38-.18-.83-.27-1.37-.27-.94,0-1.68.27-2.22.81-.54.54-.89,1.32-1.06,2.34h6.2Z"/>
      <path d="M442.38,205.22c.51-.9,1.11-1.61,1.77-2.12.67-.51,1.44-.77,2.31-.77.75,0,1.36.18,1.83.53l-.32,3.66c-.05.24-.14.4-.27.48-.12.09-.29.13-.51.13-.09,0-.2,0-.34-.02-.14-.01-.28-.02-.43-.04-.15-.02-.3-.03-.46-.05s-.3-.02-.43-.02c-.73,0-1.31.19-1.74.58-.43.39-.8.92-1.1,1.61v10.12h-4.98v-16.66h2.96c.25,0,.45.02.62.06.17.04.31.11.42.2.11.09.2.21.26.36.06.15.11.33.15.55l.26,1.4Z"/>
      <path d="M449.97,207.54h8.67v4.02h-8.67v-4.02Z"/>
      <path d="M466.09,211.88c.16,1.39.58,2.4,1.27,3.03s1.57.94,2.65.94c.58,0,1.08-.07,1.49-.21.42-.14.79-.29,1.12-.47s.63-.33.9-.47c.27-.14.56-.21.86-.21.4,0,.7.14.9.43l1.45,1.78c-.51.59-1.07,1.07-1.66,1.44-.59.37-1.21.66-1.83.87-.63.21-1.25.35-1.88.43-.63.08-1.22.12-1.79.12-1.17,0-2.26-.19-3.29-.57-1.02-.38-1.92-.94-2.68-1.69-.77-.75-1.37-1.68-1.82-2.79s-.67-2.41-.67-3.89c0-1.11.19-2.17.57-3.16.38-1,.93-1.87,1.64-2.62.71-.75,1.57-1.34,2.59-1.78,1.01-.44,2.16-.66,3.43-.66,1.1,0,2.11.17,3.03.51.92.34,1.7.84,2.36,1.49s1.17,1.45,1.54,2.4c.37.95.55,2.02.55,3.22,0,.38-.02.68-.05.92-.03.24-.09.42-.18.56-.09.14-.2.24-.35.29-.15.05-.33.08-.55.08h-9.61ZM472.36,208.98c0-.4-.05-.78-.15-1.16-.1-.37-.27-.71-.5-1-.23-.29-.53-.53-.91-.71-.38-.18-.83-.27-1.37-.27-.94,0-1.68.27-2.22.81-.54.54-.89,1.32-1.06,2.34h6.2Z"/>
      <path d="M483.91,204.45c.32-.3.65-.58,1-.84.34-.26.71-.47,1.1-.65.39-.18.81-.32,1.27-.42.46-.1.95-.15,1.49-.15.91,0,1.72.16,2.42.47.7.32,1.29.75,1.78,1.32.48.56.85,1.23,1.09,2.01.25.78.37,1.62.37,2.53v10.59h-4.98v-10.59c0-.81-.19-1.45-.56-1.9-.38-.46-.93-.68-1.65-.68-.55,0-1.06.12-1.53.35-.48.23-.94.54-1.39.94v11.89h-4.98v-16.66h3.08c.62,0,1.03.28,1.22.84l.29.96Z"/>
      <path d="M512.74,203.17v1.82c0,.28-.08.5-.23.66-.16.16-.42.28-.8.37l-1.2.27c.06.24.11.48.15.72.04.25.06.5.06.77,0,.83-.17,1.58-.52,2.25-.35.66-.82,1.23-1.43,1.69-.61.47-1.32.82-2.14,1.08-.83.25-1.71.38-2.65.38-.26,0-.51,0-.75-.02-.25-.02-.49-.05-.72-.09-.36.22-.55.48-.55.75s.15.48.45.6.7.21,1.19.26c.49.05,1.05.08,1.68.1.63.02,1.27.05,1.92.11.65.06,1.29.16,1.92.3s1.19.36,1.68.67c.49.31.89.73,1.19,1.25.3.52.45,1.18.45,1.98,0,.75-.18,1.48-.55,2.2-.36.72-.9,1.35-1.61,1.91-.71.56-1.57,1-2.6,1.34-1.03.34-2.21.51-3.53.51s-2.43-.12-3.38-.37c-.95-.25-1.74-.57-2.36-.97-.63-.4-1.09-.86-1.39-1.39s-.45-1.07-.45-1.64c0-.74.21-1.35.64-1.85s1.03-.89,1.8-1.19c-.41-.25-.73-.56-.96-.95-.24-.39-.35-.88-.35-1.49,0-.25.04-.51.13-.78.09-.27.22-.54.41-.8.19-.26.42-.51.7-.75.28-.24.61-.44,1-.63-.87-.46-1.55-1.07-2.06-1.82-.5-.76-.75-1.64-.75-2.64,0-.84.18-1.59.53-2.26.35-.67.84-1.24,1.45-1.7.62-.47,1.34-.82,2.18-1.08.84-.25,1.74-.38,2.71-.38,1.41,0,2.67.27,3.76.8h5.01ZM507.83,219.92c0-.4-.18-.68-.53-.86-.35-.18-.81-.3-1.38-.38-.57-.07-1.2-.12-1.9-.14-.7-.02-1.4-.06-2.1-.12-.31.21-.56.45-.76.72-.2.26-.3.56-.3.89,0,.24.05.45.15.64.1.19.28.36.54.5.26.14.6.25,1.04.33.43.08.98.12,1.65.12.72,0,1.31-.04,1.77-.13.46-.09.83-.2,1.1-.35.27-.15.46-.33.57-.54.11-.21.16-.44.16-.68ZM503.97,210.11c.82,0,1.42-.21,1.79-.62.37-.41.55-.94.55-1.6s-.19-1.21-.55-1.59c-.37-.39-.97-.58-1.79-.58s-1.42.19-1.79.58c-.37.39-.55.92-.55,1.59,0,.32.05.62.14.88.09.27.23.5.43.7s.44.35.73.47c.29.11.65.17,1.05.17Z"/>
      <path d="M520.44,198.09c0,.4-.08.77-.24,1.12-.16.35-.38.65-.66.92-.28.26-.6.47-.97.63s-.76.23-1.18.23-.79-.08-1.14-.23-.67-.36-.94-.63c-.27-.26-.49-.57-.64-.92-.16-.35-.23-.72-.23-1.12s.08-.79.23-1.14.37-.66.64-.93.59-.48.94-.63.73-.23,1.14-.23.81.08,1.18.23.69.36.97.63.5.58.66.93.24.73.24,1.14ZM519.93,202.65v16.66h-4.98v-16.66h4.98Z"/>
      <path d="M528.01,204.45c.32-.3.65-.58,1-.84.34-.26.71-.47,1.1-.65.39-.18.81-.32,1.27-.42.46-.1.95-.15,1.49-.15.91,0,1.72.16,2.42.47.7.32,1.29.75,1.78,1.32.48.56.85,1.23,1.09,2.01.25.78.37,1.62.37,2.53v10.59h-4.98v-10.59c0-.81-.19-1.45-.56-1.9-.38-.46-.93-.68-1.65-.68-.55,0-1.06.12-1.53.35-.48.23-.94.54-1.39.94v11.89h-4.98v-16.66h3.08c.62,0,1.03.28,1.22.84l.29.96Z"/>
      <path d="M545.82,211.88c.16,1.39.58,2.4,1.27,3.03s1.57.94,2.65.94c.58,0,1.08-.07,1.49-.21.42-.14.79-.29,1.12-.47s.63-.33.9-.47c.27-.14.56-.21.86-.21.4,0,.7.14.9.43l1.45,1.78c-.51.59-1.07,1.07-1.66,1.44-.59.37-1.21.66-1.83.87-.63.21-1.25.35-1.88.43-.63.08-1.22.12-1.79.12-1.17,0-2.26-.19-3.29-.57-1.02-.38-1.92-.94-2.68-1.69-.77-.75-1.37-1.68-1.82-2.79s-.67-2.41-.67-3.89c0-1.11.19-2.17.57-3.16.38-1,.93-1.87,1.64-2.62.71-.75,1.57-1.34,2.59-1.78,1.01-.44,2.16-.66,3.43-.66,1.1,0,2.11.17,3.03.51.92.34,1.7.84,2.36,1.49s1.17,1.45,1.54,2.4c.37.95.55,2.02.55,3.22,0,.38-.02.68-.05.92-.03.24-.09.42-.18.56-.09.14-.2.24-.35.29-.15.05-.33.08-.55.08h-9.61ZM552.09,208.98c0-.4-.05-.78-.15-1.16-.1-.37-.27-.71-.5-1-.23-.29-.53-.53-.91-.71-.38-.18-.83-.27-1.37-.27-.94,0-1.68.27-2.22.81-.54.54-.89,1.32-1.06,2.34h6.2Z"/>
      <path d="M563.14,211.88c.16,1.39.58,2.4,1.27,3.03s1.57.94,2.65.94c.58,0,1.08-.07,1.49-.21.42-.14.79-.29,1.12-.47s.63-.33.9-.47c.27-.14.56-.21.86-.21.4,0,.7.14.9.43l1.45,1.78c-.51.59-1.07,1.07-1.66,1.44-.59.37-1.21.66-1.83.87-.63.21-1.25.35-1.88.43-.63.08-1.22.12-1.79.12-1.17,0-2.26-.19-3.29-.57-1.02-.38-1.92-.94-2.68-1.69-.77-.75-1.37-1.68-1.82-2.79s-.67-2.41-.67-3.89c0-1.11.19-2.17.57-3.16.38-1,.93-1.87,1.64-2.62.71-.75,1.57-1.34,2.59-1.78,1.01-.44,2.16-.66,3.43-.66,1.1,0,2.11.17,3.03.51.92.34,1.7.84,2.36,1.49s1.17,1.45,1.54,2.4c.37.95.55,2.02.55,3.22,0,.38-.02.68-.05.92-.03.24-.09.42-.18.56-.09.14-.2.24-.35.29-.15.05-.33.08-.55.08h-9.61ZM569.4,208.98c0-.4-.05-.78-.15-1.16-.1-.37-.27-.71-.5-1-.23-.29-.53-.53-.91-.71-.38-.18-.83-.27-1.37-.27-.94,0-1.68.27-2.22.81-.54.54-.89,1.32-1.06,2.34h6.2Z"/>
      <path d="M581.02,205.22c.51-.9,1.11-1.61,1.77-2.12.67-.51,1.44-.77,2.31-.77.75,0,1.36.18,1.83.53l-.32,3.66c-.05.24-.14.4-.27.48-.12.09-.29.13-.51.13-.09,0-.2,0-.34-.02-.14-.01-.28-.02-.43-.04-.15-.02-.3-.03-.46-.05s-.3-.02-.43-.02c-.73,0-1.31.19-1.74.58-.43.39-.8.92-1.1,1.61v10.12h-4.98v-16.66h2.96c.25,0,.45.02.62.06.17.04.31.11.42.2.11.09.2.21.26.36.06.15.11.33.15.55l.26,1.4Z"/>
      <path d="M592.42,211.88c.16,1.39.58,2.4,1.27,3.03s1.57.94,2.65.94c.58,0,1.08-.07,1.49-.21.42-.14.79-.29,1.12-.47s.63-.33.9-.47c.27-.14.56-.21.86-.21.4,0,.7.14.9.43l1.45,1.78c-.51.59-1.07,1.07-1.66,1.44-.59.37-1.21.66-1.83.87-.63.21-1.25.35-1.88.43-.63.08-1.22.12-1.79.12-1.17,0-2.26-.19-3.29-.57-1.02-.38-1.92-.94-2.68-1.69-.77-.75-1.37-1.68-1.82-2.79s-.67-2.41-.67-3.89c0-1.11.19-2.17.57-3.16.38-1,.93-1.87,1.64-2.62.71-.75,1.57-1.34,2.59-1.78,1.01-.44,2.16-.66,3.43-.66,1.1,0,2.11.17,3.03.51.92.34,1.7.84,2.36,1.49s1.17,1.45,1.54,2.4c.37.95.55,2.02.55,3.22,0,.38-.02.68-.05.92-.03.24-.09.42-.18.56-.09.14-.2.24-.35.29-.15.05-.33.08-.55.08h-9.61ZM598.69,208.98c0-.4-.05-.78-.15-1.16-.1-.37-.27-.71-.5-1-.23-.29-.53-.53-.91-.71-.38-.18-.83-.27-1.37-.27-.94,0-1.68.27-2.22.81-.54.54-.89,1.32-1.06,2.34h6.2Z"/>
      <path d="M620.73,195.26v24.05h-3.08c-.62,0-1.03-.28-1.22-.84l-.39-1.27c-.33.35-.68.67-1.04.96-.36.29-.76.54-1.18.75-.42.21-.88.37-1.37.48-.49.11-1.02.17-1.58.17-.87,0-1.67-.19-2.41-.58s-1.38-.94-1.91-1.67c-.54-.73-.96-1.62-1.26-2.67-.31-1.05-.46-2.26-.46-3.61,0-1.24.17-2.4.51-3.46.34-1.07.83-1.99,1.45-2.76s1.38-1.38,2.26-1.82c.88-.44,1.85-.66,2.91-.66.87,0,1.6.12,2.19.37.59.25,1.12.58,1.61,1v-8.43h4.98ZM615.75,207.12c-.38-.42-.78-.71-1.22-.88s-.9-.25-1.38-.25-.88.09-1.27.27c-.39.18-.72.47-1,.88-.28.4-.51.92-.67,1.57s-.24,1.42-.24,2.33.06,1.62.19,2.22c.13.6.31,1.08.54,1.45.23.37.51.63.83.8s.68.24,1.08.24c.36,0,.69-.03.99-.1.29-.07.56-.17.81-.3.25-.13.48-.29.7-.49.22-.2.44-.43.65-.68v-7.05Z"/>
      <path d="M663.99,195.91l-7.23,23.41h-4.92l-4.4-14.51c-.09-.23-.17-.47-.24-.75-.08-.27-.15-.56-.22-.86-.08.3-.15.59-.23.86-.08.27-.16.52-.24.75l-4.47,14.51h-4.92l-7.23-23.41h4.56c.47,0,.86.11,1.18.32.32.21.52.5.62.85l3.21,12.21c.1.39.19.81.29,1.26.1.46.19.93.29,1.42.19-1.01.43-1.9.71-2.68l3.79-12.21c.1-.3.3-.57.62-.81.32-.24.7-.36,1.15-.36h1.61c.47,0,.85.11,1.14.33.29.22.51.5.66.84l3.76,12.21c.28.75.51,1.6.71,2.55.09-.48.17-.93.27-1.36.09-.42.18-.82.28-1.2l3.21-12.21c.09-.31.29-.58.61-.82.32-.24.71-.35,1.16-.35h4.27Z"/>
      <path d="M671.14,198.09c0,.4-.08.77-.24,1.12-.16.35-.38.65-.66.92-.28.26-.6.47-.97.63s-.76.23-1.18.23-.79-.08-1.14-.23-.67-.36-.94-.63c-.27-.26-.49-.57-.64-.92-.16-.35-.23-.72-.23-1.12s.08-.79.23-1.14.37-.66.64-.93.59-.48.94-.63.73-.23,1.14-.23.81.08,1.18.23.69.36.97.63.5.58.66.93.24.73.24,1.14ZM670.62,202.65v16.66h-4.98v-16.66h4.98Z"/>
      <path d="M684.7,206.3c-.13.2-.27.35-.41.43-.14.09-.33.13-.55.13-.24,0-.47-.05-.71-.15-.24-.1-.49-.21-.76-.33-.27-.12-.58-.23-.92-.33-.34-.1-.73-.15-1.17-.15-.63,0-1.12.12-1.45.36-.34.24-.51.58-.51,1,0,.31.11.57.33.77.22.2.51.38.88.54.36.16.78.3,1.24.44s.93.29,1.41.47.95.37,1.41.6.87.51,1.24.85c.36.34.66.75.88,1.23.22.48.33,1.06.33,1.74,0,.82-.15,1.58-.45,2.28-.3.7-.75,1.3-1.34,1.8-.59.5-1.33.89-2.2,1.17-.87.28-1.88.42-3.01.42-.57,0-1.14-.05-1.7-.16s-1.12-.25-1.65-.43-1.02-.4-1.47-.65c-.45-.25-.84-.52-1.16-.81l1.16-1.83c.13-.21.29-.38.49-.51.2-.12.45-.18.76-.18.29,0,.55.06.78.19.23.13.48.27.75.42s.58.29.94.42c.36.13.81.19,1.36.19.39,0,.71-.04.98-.12.27-.08.48-.19.64-.33s.28-.29.35-.47c.07-.17.11-.35.11-.53,0-.33-.11-.6-.34-.82-.22-.21-.52-.4-.88-.55-.36-.15-.78-.3-1.25-.43s-.94-.29-1.42-.46c-.48-.17-.96-.38-1.42-.62-.47-.24-.88-.55-1.25-.92-.36-.37-.66-.82-.88-1.36-.22-.54-.34-1.18-.34-1.94,0-.71.14-1.38.41-2.02.27-.64.68-1.2,1.23-1.68.55-.48,1.23-.86,2.06-1.15s1.79-.43,2.89-.43c.6,0,1.18.05,1.74.16.56.11,1.09.26,1.58.45.49.19.94.42,1.35.68.41.26.77.55,1.08.86l-1.12,1.75Z"/>
      <path d="M693.4,204.12c.6-.51,1.25-.93,1.95-1.24.7-.32,1.54-.47,2.51-.47.91,0,1.72.16,2.42.47.7.32,1.29.75,1.78,1.32.48.56.85,1.23,1.09,2.01.25.78.37,1.62.37,2.53v10.59h-4.98v-10.59c0-.81-.19-1.45-.56-1.9-.38-.46-.93-.68-1.65-.68-.55,0-1.06.12-1.53.35-.48.23-.94.54-1.39.94v11.89h-4.98v-24.05h4.98v8.85Z"/>
      <path d="M728.84,214.98v4.34h-14.1v-23.41h5.43v19.07h8.67Z"/>
      <path d="M736.63,198.09c0,.4-.08.77-.24,1.12-.16.35-.38.65-.66.92-.28.26-.6.47-.97.63s-.76.23-1.18.23-.79-.08-1.14-.23-.67-.36-.94-.63c-.27-.26-.49-.57-.64-.92-.16-.35-.23-.72-.23-1.12s.08-.79.23-1.14.37-.66.64-.93.59-.48.94-.63.73-.23,1.14-.23.81.08,1.18.23.69.36.97.63.5.58.66.93.24.73.24,1.14ZM736.12,202.65v16.66h-4.98v-16.66h4.98Z"/>
      <path d="M750.19,206.3c-.13.2-.27.35-.41.43-.14.09-.33.13-.55.13-.24,0-.47-.05-.71-.15-.24-.1-.49-.21-.76-.33-.27-.12-.58-.23-.92-.33-.34-.1-.73-.15-1.17-.15-.63,0-1.12.12-1.45.36-.34.24-.51.58-.51,1,0,.31.11.57.33.77.22.2.51.38.88.54.36.16.78.3,1.24.44s.93.29,1.41.47.95.37,1.41.6.87.51,1.24.85c.36.34.66.75.88,1.23.22.48.33,1.06.33,1.74,0,.82-.15,1.58-.45,2.28-.3.7-.75,1.3-1.34,1.8-.59.5-1.33.89-2.2,1.17-.87.28-1.88.42-3.01.42-.57,0-1.14-.05-1.7-.16s-1.12-.25-1.65-.43-1.02-.4-1.47-.65c-.45-.25-.84-.52-1.16-.81l1.16-1.83c.13-.21.29-.38.49-.51.2-.12.45-.18.76-.18.29,0,.55.06.78.19.23.13.48.27.75.42s.58.29.94.42c.36.13.81.19,1.36.19.39,0,.71-.04.98-.12.27-.08.48-.19.64-.33s.28-.29.35-.47c.07-.17.11-.35.11-.53,0-.33-.11-.6-.34-.82-.22-.21-.52-.4-.88-.55-.36-.15-.78-.3-1.25-.43s-.94-.29-1.42-.46c-.48-.17-.96-.38-1.42-.62-.47-.24-.88-.55-1.25-.92-.36-.37-.66-.82-.88-1.36-.22-.54-.34-1.18-.34-1.94,0-.71.14-1.38.41-2.02.27-.64.68-1.2,1.23-1.68.55-.48,1.23-.86,2.06-1.15s1.79-.43,2.89-.43c.6,0,1.18.05,1.74.16.56.11,1.09.26,1.58.45.49.19.94.42,1.35.68.41.26.77.55,1.08.86l-1.12,1.75Z"/>
      <path d="M759.88,219.57c-.79,0-1.49-.12-2.1-.35s-1.11-.56-1.53-.98c-.41-.42-.73-.93-.94-1.53-.21-.6-.32-1.27-.32-2.01v-8.61h-1.41c-.26,0-.48-.08-.66-.25-.18-.17-.27-.41-.27-.73v-1.94l2.65-.51.98-4.06c.13-.51.49-.77,1.09-.77h2.6v4.87h4.13v3.41h-4.13v8.27c0,.39.09.7.28.96.19.25.46.38.81.38.18,0,.33-.02.46-.06.12-.04.23-.08.32-.13.09-.05.18-.09.26-.13.08-.04.17-.06.28-.06.15,0,.27.03.36.1.09.07.19.18.28.33l1.51,2.36c-.64.48-1.37.84-2.17,1.08-.8.24-1.63.36-2.49.36Z"/>
    </g>
  </g>
</svg>