<?xml version="1.0" encoding="UTF-8"?>
<svg id="Layer_1" data-name="Layer 1" xmlns="http://www.w3.org/2000/svg" viewBox="0 0 829.44 284.52">
  <g>
    <path d="M154.21,11.73C77.71,11.73,15.69,70.17,15.69,142.26s62.02,130.53,138.52,130.53,138.52-58.44,138.52-130.53S230.71,11.73,154.21,11.73ZM154.21,58.86c11.27,0,25.3,2.27,39.72,6.67-18.2,12.95-30.39,36.55-30.39,63.52,0,1.05.03,2.08.07,3.12-6.64-.68-13.33-.66-19.98.07.04-1.06.07-2.12.07-3.19,0-26.58-11.84-49.88-29.6-62.95,14.97-4.77,29.31-7.24,40.11-7.24ZM44.14,129.05c0-24.17,16.56-43.77,36.98-43.77s36.98,19.6,36.98,43.77-16.56,43.77-36.98,43.77-36.98-19.6-36.98-43.77ZM154.21,238.78c-40.41,0-76.09-16.43-97.52-41.52,7.51,3.77,15.77,5.86,24.44,5.86,16.43,0,31.38-7.51,42.54-19.76l30.89,44.74,29.96-43.73c11.06,11.66,25.63,18.76,41.61,18.76,9.5,0,18.51-2.52,26.57-7-21.32,25.73-57.47,42.66-98.49,42.66ZM226.13,172.82c-20.42,0-36.98-19.6-36.98-43.77s16.56-43.77,36.98-43.77,36.98,19.6,36.98,43.77-16.56,43.77-36.98,43.77Z"/>
    <path d="M81.12,157.02c13.05,0,23.63-12.52,23.63-27.97s-10.58-27.97-23.63-27.97c-6.23,0-11.89,2.85-16.11,7.51.83-.27,1.71-.43,2.61-.43,5.4,0,9.77,5.18,9.77,11.57s-4.38,11.57-9.77,11.57c-4.59,0-8.43-3.75-9.48-8.8-.43,2.1-.66,4.3-.66,6.55,0,15.45,10.58,27.97,23.63,27.97Z"/>
    <path d="M226.13,101.25c-6.34,0-12.08,2.97-16.3,7.8,1.16-.57,2.43-.89,3.77-.89,5.4,0,9.77,5.18,9.77,11.57s-4.38,11.57-9.77,11.57-9.5-4.88-9.75-11.01c-.77,2.76-1.2,5.7-1.2,8.77,0,15.35,10.52,27.8,23.49,27.8s23.49-12.45,23.49-27.8-10.52-27.8-23.49-27.8Z"/>
  </g>
  <g>
    <g>
      <path d="M475.74,138.98c0,11.24-1.94,21.69-5.81,31.36-3.88,9.67-9.33,18.08-16.37,25.23-7.04,7.15-15.52,12.75-25.44,16.8-9.92,4.05-20.92,6.08-33.01,6.08s-23.11-2.03-33.07-6.08c-9.96-4.05-18.47-9.65-25.55-16.8-7.08-7.15-12.55-15.55-16.43-25.23-3.88-9.67-5.81-20.12-5.81-31.36s1.94-21.69,5.81-31.36c3.87-9.67,9.35-18.06,16.43-25.17,7.07-7.11,15.59-12.69,25.55-16.75,9.95-4.05,20.98-6.08,33.07-6.08s23.09,2.04,33.01,6.13c9.92,4.09,18.4,9.69,25.44,16.8,7.04,7.11,12.5,15.5,16.37,25.17,3.87,9.67,5.81,20.09,5.81,31.25ZM438.83,138.98c0-7.68-1-14.59-2.99-20.75-1.99-6.15-4.85-11.36-8.59-15.63-3.73-4.27-8.3-7.54-13.71-9.81-5.4-2.27-11.56-3.41-18.45-3.41s-13.17,1.14-18.61,3.41c-5.44,2.28-10.03,5.55-13.76,9.81-3.73,4.27-6.6,9.48-8.59,15.63-1.99,6.15-2.99,13.07-2.99,20.75s1,14.7,2.99,20.85c1.99,6.15,4.85,11.36,8.59,15.63,3.73,4.27,8.32,7.52,13.76,9.76,5.44,2.24,11.64,3.36,18.61,3.36s13.05-1.12,18.45-3.36c5.4-2.24,9.97-5.49,13.71-9.76,3.73-4.27,6.59-9.47,8.59-15.63,1.99-6.15,2.99-13.1,2.99-20.85Z"/>
      <path d="M704.63,61.33l-48,155.41h-32.64l-29.23-96.32c-.57-1.49-1.1-3.15-1.6-4.96-.5-1.81-1-3.71-1.49-5.71-.5,1.99-1,3.89-1.49,5.71-.5,1.81-1.03,3.47-1.6,4.96l-29.65,96.32h-32.64l-48-155.41h30.29c3.13,0,5.74.71,7.84,2.13,2.1,1.42,3.47,3.31,4.11,5.65l21.33,81.06c.64,2.56,1.28,5.35,1.92,8.37.64,3.02,1.28,6.17,1.92,9.44,1.28-6.68,2.84-12.62,4.69-17.81l25.17-81.06c.64-1.99,2.01-3.79,4.11-5.39,2.1-1.6,4.64-2.4,7.63-2.4h10.67c3.13,0,5.65.73,7.57,2.19,1.92,1.46,3.38,3.32,4.37,5.6l24.96,81.06c1.85,4.98,3.41,10.63,4.69,16.96.57-3.2,1.15-6.2,1.76-9.01.6-2.81,1.23-5.46,1.87-7.95l21.33-81.06c.57-2.06,1.92-3.87,4.05-5.44,2.13-1.56,4.69-2.35,7.68-2.35h28.37Z"/>
      <path d="M813.74,187.94v28.8h-93.65V61.33h36.05v126.61h57.6Z"/>
    </g>
    <g>
      <path d="M345.39,250.33c0,2.18-.38,4.21-1.13,6.08-.75,1.88-1.81,3.51-3.17,4.89-1.36,1.39-3.01,2.47-4.93,3.26-1.92.79-4.06,1.18-6.4,1.18s-4.48-.39-6.41-1.18c-1.93-.79-3.58-1.87-4.95-3.26-1.37-1.39-2.43-3.02-3.19-4.89-.75-1.87-1.13-3.9-1.13-6.08s.38-4.21,1.13-6.08c.75-1.88,1.81-3.5,3.19-4.88,1.37-1.38,3.02-2.46,4.95-3.25,1.93-.79,4.07-1.18,6.41-1.18s4.48.4,6.4,1.19c1.92.79,3.57,1.88,4.93,3.26,1.36,1.38,2.42,3.01,3.17,4.88.75,1.88,1.13,3.89,1.13,6.06ZM338.23,250.33c0-1.49-.19-2.83-.58-4.02-.39-1.19-.94-2.2-1.67-3.03-.72-.83-1.61-1.46-2.66-1.9s-2.24-.66-3.58-.66-2.55.22-3.61.66-1.94,1.08-2.67,1.9c-.72.83-1.28,1.84-1.66,3.03s-.58,2.53-.58,4.02.19,2.85.58,4.04.94,2.2,1.66,3.03c.72.83,1.61,1.46,2.67,1.89s2.26.65,3.61.65,2.53-.22,3.58-.65,1.93-1.06,2.66-1.89c.72-.83,1.28-1.84,1.67-3.03.39-1.19.58-2.54.58-4.04Z"/>
      <path d="M368.96,243.96l-8.31,21.45h-5.83l-8.31-21.45h5.34c.45,0,.84.11,1.15.32.31.21.52.48.63.8l2.98,9.62c.26.79.49,1.55.69,2.3.2.74.38,1.49.53,2.23.3-1.49.72-3,1.26-4.53l3.1-9.62c.11-.32.32-.58.62-.8.3-.21.66-.32,1.08-.32h5.09Z"/>
      <path d="M375.6,255.83c.21,1.79.75,3.09,1.63,3.9s2.02,1.21,3.41,1.21c.74,0,1.39-.09,1.92-.27.54-.18,1.02-.38,1.44-.6s.81-.42,1.16-.6c.35-.18.72-.27,1.11-.27.51,0,.9.19,1.16.56l1.86,2.3c-.66.76-1.38,1.38-2.14,1.85-.77.48-1.55.85-2.36,1.12-.81.27-1.61.46-2.42.56-.81.1-1.58.15-2.31.15-1.5,0-2.91-.24-4.23-.73-1.32-.49-2.47-1.22-3.45-2.18-.99-.96-1.77-2.16-2.34-3.6-.57-1.43-.86-3.1-.86-5.01,0-1.43.24-2.79.73-4.07.49-1.28,1.19-2.41,2.11-3.37.92-.96,2.03-1.73,3.33-2.3,1.3-.57,2.77-.85,4.42-.85,1.42,0,2.72.22,3.9.66,1.18.44,2.19,1.08,3.04,1.92.85.84,1.51,1.87,1.99,3.09.48,1.22.71,2.6.71,4.15,0,.48-.02.88-.06,1.18-.04.3-.12.55-.23.72-.11.18-.26.3-.44.37-.19.07-.42.1-.71.1h-12.37ZM383.67,252.11c0-.51-.07-1.01-.2-1.49-.13-.48-.35-.91-.64-1.29-.3-.38-.69-.69-1.17-.92-.48-.23-1.07-.35-1.76-.35-1.21,0-2.16.35-2.85,1.04-.69.7-1.14,1.7-1.36,3.01h7.98Z"/>
      <path d="M398.62,247.27c.66-1.16,1.42-2.07,2.29-2.73.86-.66,1.85-.99,2.97-.99.96,0,1.75.23,2.36.68l-.41,4.72c-.07.3-.18.51-.34.62-.16.11-.38.17-.65.17-.11,0-.26,0-.43-.02-.18-.01-.37-.03-.56-.05-.19-.02-.39-.04-.59-.06s-.38-.03-.55-.03c-.94,0-1.69.25-2.24.74-.56.5-1.03,1.19-1.42,2.07v13.03h-6.41v-21.45h3.81c.32,0,.58.03.8.08.21.06.39.14.54.26.15.12.26.27.33.47.08.19.14.43.2.7l.33,1.8Z"/>
      <path d="M408.38,250.25h11.17v5.17h-11.17v-5.17Z"/>
      <path d="M429.15,255.83c.21,1.79.75,3.09,1.63,3.9s2.02,1.21,3.41,1.21c.74,0,1.39-.09,1.92-.27.54-.18,1.02-.38,1.44-.6s.81-.42,1.16-.6c.35-.18.72-.27,1.11-.27.51,0,.9.19,1.16.56l1.86,2.3c-.66.76-1.38,1.38-2.14,1.85-.77.48-1.55.85-2.36,1.12-.81.27-1.61.46-2.42.56-.81.1-1.58.15-2.31.15-1.5,0-2.91-.24-4.23-.73-1.32-.49-2.47-1.22-3.45-2.18-.99-.96-1.77-2.16-2.34-3.6-.57-1.43-.86-3.1-.86-5.01,0-1.43.24-2.79.73-4.07.49-1.28,1.19-2.41,2.11-3.37.92-.96,2.03-1.73,3.33-2.3,1.3-.57,2.77-.85,4.42-.85,1.42,0,2.72.22,3.9.66,1.18.44,2.19,1.08,3.04,1.92s1.51,1.87,1.99,3.09c.48,1.22.71,2.6.71,4.15,0,.48-.02.88-.06,1.18-.04.3-.12.55-.23.72-.11.18-.26.3-.44.37-.19.07-.42.1-.71.1h-12.37ZM437.21,252.11c0-.51-.07-1.01-.2-1.49-.13-.48-.35-.91-.64-1.29-.3-.38-.69-.69-1.17-.92-.48-.23-1.07-.35-1.76-.35-1.21,0-2.16.35-2.85,1.04-.69.7-1.14,1.7-1.36,3.01h7.98Z"/>
      <path d="M452.08,246.28c.41-.39.84-.74,1.28-1.08.44-.33.91-.61,1.42-.84.5-.23,1.05-.41,1.63-.54.59-.13,1.22-.2,1.91-.2,1.17,0,2.21.2,3.11.61.9.41,1.67.97,2.29,1.7.62.72,1.09,1.59,1.41,2.59.32,1,.48,2.09.48,3.26v13.63h-6.41v-13.63c0-1.05-.24-1.86-.72-2.45-.48-.59-1.19-.88-2.13-.88-.7,0-1.36.15-1.98.44-.61.3-1.21.7-1.79,1.21v15.3h-6.41v-21.45h3.97c.8,0,1.32.36,1.57,1.08l.37,1.24Z"/>
      <path d="M489.21,244.62v2.34c0,.36-.1.64-.3.85-.2.21-.54.37-1.02.48l-1.55.35c.08.3.15.61.2.93.05.32.07.65.07.99,0,1.07-.22,2.04-.67,2.9-.45.85-1.06,1.58-1.84,2.18-.78.6-1.7,1.06-2.76,1.39-1.06.32-2.2.49-3.41.49-.33,0-.66-.01-.97-.03-.32-.02-.63-.06-.93-.11-.47.29-.7.61-.7.97s.19.62.58.78.9.27,1.53.33c.63.06,1.35.1,2.16.12.81.02,1.63.07,2.47.14.84.08,1.67.2,2.47.38s1.53.47,2.16.87c.63.4,1.14.93,1.53,1.6.39.67.58,1.52.58,2.55,0,.96-.24,1.91-.7,2.83-.47.92-1.16,1.74-2.07,2.46-.91.72-2.03,1.29-3.35,1.73-1.32.43-2.84.65-4.55.65s-3.13-.16-4.35-.48c-1.22-.32-2.23-.73-3.04-1.25-.81-.52-1.4-1.11-1.79-1.79s-.58-1.38-.58-2.11c0-.95.28-1.74.83-2.38s1.32-1.14,2.32-1.53c-.52-.32-.94-.72-1.24-1.22-.3-.5-.46-1.14-.46-1.92,0-.32.06-.65.17-1,.11-.35.29-.7.53-1.03.24-.34.54-.66.9-.96.36-.3.79-.57,1.28-.81-1.12-.59-2-1.38-2.65-2.35-.65-.97-.97-2.11-.97-3.4,0-1.08.23-2.04.68-2.91.45-.86,1.08-1.59,1.87-2.19.79-.6,1.73-1.06,2.8-1.39,1.08-.32,2.24-.49,3.5-.49,1.82,0,3.43.35,4.84,1.03h6.45ZM482.88,266.19c0-.51-.23-.88-.68-1.11-.45-.23-1.05-.39-1.78-.49-.73-.1-1.55-.16-2.45-.18-.9-.02-1.8-.07-2.7-.16-.4.28-.73.58-.98.92-.26.34-.38.72-.38,1.15,0,.3.07.58.2.83.13.25.36.46.69.64.33.18.78.32,1.33.42.56.1,1.26.16,2.12.16.92,0,1.68-.06,2.27-.17.59-.11,1.06-.26,1.42-.45.35-.19.6-.42.73-.69.14-.27.21-.56.21-.88ZM477.91,253.56c1.06,0,1.83-.27,2.31-.8.48-.53.71-1.22.71-2.06s-.24-1.55-.71-2.05c-.48-.5-1.24-.74-2.31-.74s-1.83.25-2.31.74c-.48.5-.71,1.18-.71,2.05,0,.41.06.79.18,1.14.12.35.3.64.55.9s.56.45.94.6c.38.14.83.22,1.35.22Z"/>
      <path d="M499.11,238.09c0,.51-.1.99-.31,1.44-.21.45-.49.84-.85,1.18-.36.34-.78.61-1.25.81s-.98.3-1.52.3-1.01-.1-1.47-.3-.86-.47-1.21-.81c-.35-.34-.63-.73-.83-1.18-.2-.45-.3-.93-.3-1.44s.1-1.01.3-1.47.48-.85.83-1.2.75-.61,1.21-.81.94-.29,1.47-.29,1.04.1,1.52.29.89.46,1.25.81.64.74.85,1.2.31.94.31,1.47ZM498.45,243.96v21.45h-6.41v-21.45h6.41Z"/>
      <path d="M508.85,246.28c.41-.39.84-.74,1.28-1.08.44-.33.91-.61,1.42-.84.5-.23,1.05-.41,1.63-.54.59-.13,1.22-.2,1.91-.2,1.17,0,2.21.2,3.11.61.9.41,1.67.97,2.29,1.7.62.72,1.09,1.59,1.41,2.59.32,1,.48,2.09.48,3.26v13.63h-6.41v-13.63c0-1.05-.24-1.86-.72-2.45-.48-.59-1.19-.88-2.13-.88-.7,0-1.36.15-1.98.44-.61.3-1.21.7-1.79,1.21v15.3h-6.41v-21.45h3.97c.8,0,1.32.36,1.57,1.08l.37,1.24Z"/>
      <path d="M531.79,255.83c.21,1.79.75,3.09,1.63,3.9s2.02,1.21,3.41,1.21c.74,0,1.39-.09,1.92-.27.54-.18,1.02-.38,1.44-.6s.81-.42,1.16-.6c.35-.18.72-.27,1.11-.27.51,0,.9.19,1.16.56l1.86,2.3c-.66.76-1.38,1.38-2.14,1.85-.77.48-1.55.85-2.36,1.12-.81.27-1.61.46-2.42.56-.81.1-1.58.15-2.31.15-1.5,0-2.91-.24-4.23-.73-1.32-.49-2.47-1.22-3.45-2.18-.99-.96-1.77-2.16-2.34-3.6-.57-1.43-.86-3.1-.86-5.01,0-1.43.24-2.79.73-4.07.49-1.28,1.19-2.41,2.11-3.37.92-.96,2.03-1.73,3.33-2.3,1.3-.57,2.77-.85,4.42-.85,1.42,0,2.72.22,3.9.66,1.18.44,2.19,1.08,3.04,1.92s1.51,1.87,1.99,3.09c.48,1.22.71,2.6.71,4.15,0,.48-.02.88-.06,1.18-.04.3-.12.55-.23.72-.11.18-.26.3-.44.37-.19.07-.42.1-.71.1h-12.37ZM539.86,252.11c0-.51-.07-1.01-.2-1.49-.13-.48-.35-.91-.64-1.29-.3-.38-.69-.69-1.17-.92-.48-.23-1.07-.35-1.76-.35-1.21,0-2.16.35-2.85,1.04-.69.7-1.14,1.7-1.36,3.01h7.98Z"/>
      <path d="M554.09,255.83c.21,1.79.75,3.09,1.63,3.9s2.02,1.21,3.41,1.21c.74,0,1.39-.09,1.92-.27.54-.18,1.02-.38,1.44-.6s.81-.42,1.16-.6c.35-.18.72-.27,1.11-.27.51,0,.9.19,1.16.56l1.86,2.3c-.66.76-1.38,1.38-2.14,1.85-.77.48-1.55.85-2.36,1.12-.81.27-1.61.46-2.42.56-.81.1-1.58.15-2.31.15-1.5,0-2.91-.24-4.23-.73-1.32-.49-2.47-1.22-3.45-2.18-.99-.96-1.77-2.16-2.34-3.6-.57-1.43-.86-3.1-.86-5.01,0-1.43.24-2.79.73-4.07.49-1.28,1.19-2.41,2.11-3.37.92-.96,2.03-1.73,3.33-2.3,1.3-.57,2.77-.85,4.42-.85,1.42,0,2.72.22,3.9.66,1.18.44,2.19,1.08,3.04,1.92s1.51,1.87,1.99,3.09c.48,1.22.71,2.6.71,4.15,0,.48-.02.88-.06,1.18-.04.3-.12.55-.23.72-.11.18-.26.3-.44.37-.19.07-.42.1-.71.1h-12.37ZM562.15,252.11c0-.51-.07-1.01-.2-1.49-.13-.48-.35-.91-.64-1.29-.3-.38-.69-.69-1.17-.92-.48-.23-1.07-.35-1.76-.35-1.21,0-2.16.35-2.85,1.04-.69.7-1.14,1.7-1.36,3.01h7.98Z"/>
      <path d="M577.1,247.27c.66-1.16,1.42-2.07,2.29-2.73.86-.66,1.85-.99,2.97-.99.96,0,1.75.23,2.36.68l-.41,4.72c-.07.3-.18.51-.34.62-.16.11-.38.17-.65.17-.11,0-.26,0-.43-.02-.18-.01-.37-.03-.56-.05-.19-.02-.39-.04-.59-.06s-.38-.03-.55-.03c-.94,0-1.69.25-2.24.74-.56.5-1.03,1.19-1.42,2.07v13.03h-6.41v-21.45h3.81c.32,0,.58.03.8.08.21.06.39.14.54.26.15.12.26.27.33.47.08.19.14.43.2.7l.33,1.8Z"/>
      <path d="M591.79,255.83c.21,1.79.75,3.09,1.63,3.9s2.02,1.21,3.41,1.21c.74,0,1.39-.09,1.92-.27.54-.18,1.02-.38,1.44-.6s.81-.42,1.16-.6c.35-.18.72-.27,1.11-.27.51,0,.9.19,1.16.56l1.86,2.3c-.66.76-1.38,1.38-2.14,1.85-.77.48-1.55.85-2.36,1.12-.81.27-1.61.46-2.42.56-.81.1-1.58.15-2.31.15-1.5,0-2.91-.24-4.23-.73-1.32-.49-2.47-1.22-3.45-2.18-.99-.96-1.77-2.16-2.34-3.6-.57-1.43-.86-3.1-.86-5.01,0-1.43.24-2.79.73-4.07.49-1.28,1.19-2.41,2.11-3.37.92-.96,2.03-1.73,3.33-2.3,1.3-.57,2.77-.85,4.42-.85,1.42,0,2.72.22,3.9.66,1.18.44,2.19,1.08,3.04,1.92s1.51,1.87,1.99,3.09c.48,1.22.71,2.6.71,4.15,0,.48-.02.88-.06,1.18-.04.3-.12.55-.23.72-.11.18-.26.3-.44.37-.19.07-.42.1-.71.1h-12.37ZM599.85,252.11c0-.51-.07-1.01-.2-1.49-.13-.48-.35-.91-.64-1.29-.3-.38-.69-.69-1.17-.92-.48-.23-1.07-.35-1.76-.35-1.21,0-2.16.35-2.85,1.04-.69.7-1.14,1.7-1.36,3.01h7.98Z"/>
      <path d="M628.23,234.45v30.96h-3.97c-.8,0-1.32-.36-1.57-1.08l-.5-1.63c-.43.46-.88.87-1.34,1.24-.47.37-.97.69-1.52.96-.54.27-1.13.48-1.76.62-.63.14-1.31.22-2.04.22-1.12,0-2.15-.25-3.1-.74s-1.77-1.21-2.46-2.15c-.69-.94-1.23-2.09-1.62-3.44-.39-1.36-.59-2.91-.59-4.64,0-1.6.22-3.08.66-4.46.44-1.37,1.07-2.56,1.87-3.56s1.78-1.78,2.91-2.35c1.13-.57,2.38-.85,3.74-.85,1.12,0,2.05.16,2.81.48.76.32,1.45.74,2.07,1.28v-10.86h6.41ZM621.82,249.71c-.48-.54-1.01-.91-1.57-1.13s-1.16-.32-1.78-.32-1.14.12-1.63.35c-.5.23-.93.61-1.29,1.13-.37.52-.65,1.19-.86,2.02s-.31,1.83-.31,3,.08,2.08.25,2.85c.17.77.4,1.4.69,1.87.3.48.65.82,1.06,1.02s.88.31,1.39.31c.47,0,.89-.04,1.27-.13.38-.09.73-.22,1.04-.38.32-.17.62-.38.9-.63.28-.25.56-.55.84-.88v-9.08Z"/>
      <path d="M683.92,235.27l-9.31,30.13h-6.33l-5.67-18.68c-.11-.29-.21-.61-.31-.96-.1-.35-.19-.72-.29-1.11-.1.39-.19.75-.29,1.11-.1.35-.2.67-.31.96l-5.75,18.68h-6.33l-9.31-30.13h5.87c.61,0,1.11.14,1.52.41.41.28.67.64.8,1.1l4.14,15.72c.12.5.25,1.04.37,1.62.12.59.25,1.2.37,1.83.25-1.3.55-2.45.91-3.45l4.88-15.72c.12-.39.39-.73.8-1.04.41-.31.9-.47,1.48-.47h2.07c.61,0,1.1.14,1.47.42.37.28.65.64.85,1.09l4.84,15.72c.36.97.66,2.06.91,3.29.11-.62.22-1.2.34-1.75.12-.54.24-1.06.36-1.54l4.14-15.72c.11-.4.37-.75.79-1.05.41-.3.91-.46,1.49-.46h5.5Z"/>
      <path d="M693.13,238.09c0,.51-.1.99-.31,1.44-.21.45-.49.84-.85,1.18-.36.34-.78.61-1.25.81s-.98.3-1.52.3-1.01-.1-1.47-.3-.86-.47-1.21-.81c-.35-.34-.63-.73-.83-1.18-.2-.45-.3-.93-.3-1.44s.1-1.01.3-1.47.48-.85.83-1.2.75-.61,1.21-.81.94-.29,1.47-.29,1.04.1,1.52.29.89.46,1.25.81.64.74.85,1.2.31.94.31,1.47ZM692.47,243.96v21.45h-6.41v-21.45h6.41Z"/>
      <path d="M710.58,248.66c-.17.26-.34.45-.53.56-.19.11-.42.17-.71.17-.3,0-.61-.07-.91-.2-.3-.13-.63-.27-.98-.42-.35-.15-.75-.29-1.19-.42-.44-.13-.94-.2-1.51-.2-.81,0-1.44.16-1.87.47-.43.31-.65.74-.65,1.29,0,.4.14.73.42.99.28.26.66.49,1.13.69.47.2,1,.39,1.59.57s1.2.38,1.82.6,1.23.48,1.82.78,1.12.66,1.59,1.1c.47.43.84.96,1.13,1.58.28.62.42,1.37.42,2.23,0,1.06-.19,2.04-.58,2.94-.39.9-.96,1.67-1.73,2.32-.77.65-1.71,1.15-2.83,1.51-1.12.36-2.42.54-3.88.54-.73,0-1.46-.07-2.19-.21s-1.44-.32-2.12-.56-1.31-.51-1.89-.84c-.58-.32-1.08-.67-1.49-1.04l1.49-2.36c.17-.28.38-.49.63-.65.26-.16.58-.24.98-.24.37,0,.71.08,1,.25.3.17.62.34.96.54s.75.37,1.21.54c.46.17,1.04.25,1.75.25.5,0,.92-.05,1.26-.16.34-.1.62-.24.83-.42s.36-.38.46-.6c.1-.22.14-.45.14-.68,0-.43-.14-.78-.43-1.05-.29-.28-.67-.51-1.14-.71-.47-.2-1-.39-1.6-.56s-1.21-.37-1.83-.59c-.62-.22-1.23-.49-1.83-.8-.6-.31-1.13-.7-1.6-1.18-.47-.48-.85-1.06-1.14-1.75-.29-.69-.43-1.52-.43-2.5,0-.91.18-1.77.53-2.6.35-.82.88-1.54,1.58-2.16.7-.62,1.59-1.11,2.65-1.48s2.3-.55,3.72-.55c.77,0,1.52.07,2.24.21.72.14,1.4.33,2.04.58.63.25,1.21.54,1.74.88.52.34.99.71,1.39,1.11l-1.45,2.25Z"/>
      <path d="M721.79,245.84c.77-.66,1.61-1.2,2.51-1.6.9-.41,1.98-.61,3.24-.61,1.17,0,2.21.2,3.11.61.9.41,1.67.97,2.29,1.7.62.72,1.09,1.59,1.41,2.59.32,1,.48,2.09.48,3.26v13.63h-6.41v-13.63c0-1.05-.24-1.86-.72-2.45-.48-.59-1.19-.88-2.13-.88-.7,0-1.36.15-1.98.44-.61.3-1.21.7-1.79,1.21v15.3h-6.41v-30.96h6.41v11.4Z"/>
      <path d="M767.42,259.82v5.58h-18.16v-30.13h6.99v24.55h11.17Z"/>
      <path d="M777.45,238.09c0,.51-.1.99-.31,1.44-.21.45-.49.84-.85,1.18-.36.34-.78.61-1.25.81s-.98.3-1.52.3-1.01-.1-1.47-.3-.86-.47-1.21-.81c-.35-.34-.63-.73-.83-1.18-.2-.45-.3-.93-.3-1.44s.1-1.01.3-1.47.48-.85.83-1.2.75-.61,1.21-.81.94-.29,1.47-.29,1.04.1,1.52.29.89.46,1.25.81.64.74.85,1.2.31.94.31,1.47ZM776.78,243.96v21.45h-6.41v-21.45h6.41Z"/>
      <path d="M794.9,248.66c-.17.26-.34.45-.53.56-.19.11-.42.17-.71.17-.3,0-.61-.07-.91-.2-.3-.13-.63-.27-.98-.42-.35-.15-.75-.29-1.19-.42-.44-.13-.94-.2-1.51-.2-.81,0-1.44.16-1.87.47-.43.31-.65.74-.65,1.29,0,.4.14.73.42.99.28.26.66.49,1.13.69.47.2,1,.39,1.59.57s1.2.38,1.82.6,1.23.48,1.82.78,1.12.66,1.59,1.1c.47.43.84.96,1.13,1.58.28.62.42,1.37.42,2.23,0,1.06-.19,2.04-.58,2.94-.39.9-.96,1.67-1.73,2.32-.77.65-1.71,1.15-2.83,1.51-1.12.36-2.42.54-3.88.54-.73,0-1.46-.07-2.19-.21s-1.44-.32-2.12-.56-1.31-.51-1.89-.84c-.58-.32-1.08-.67-1.49-1.04l1.49-2.36c.17-.28.38-.49.63-.65.26-.16.58-.24.98-.24.37,0,.71.08,1,.25.3.17.62.34.96.54s.75.37,1.21.54c.46.17,1.04.25,1.75.25.5,0,.92-.05,1.26-.16.34-.1.62-.24.83-.42s.36-.38.46-.6c.1-.22.14-.45.14-.68,0-.43-.14-.78-.43-1.05-.29-.28-.67-.51-1.14-.71-.47-.2-1-.39-1.6-.56s-1.21-.37-1.83-.59c-.62-.22-1.23-.49-1.83-.8-.6-.31-1.13-.7-1.6-1.18-.47-.48-.85-1.06-1.14-1.75-.29-.69-.43-1.52-.43-2.5,0-.91.18-1.77.53-2.6.35-.82.88-1.54,1.58-2.16.7-.62,1.59-1.11,2.65-1.48s2.3-.55,3.72-.55c.77,0,1.52.07,2.24.21.72.14,1.4.33,2.04.58.63.25,1.21.54,1.74.88.52.34.99.71,1.39,1.11l-1.45,2.25Z"/>
      <path d="M807.37,265.74c-1.02,0-1.92-.15-2.7-.44s-1.43-.72-1.96-1.26c-.53-.54-.93-1.2-1.21-1.98-.28-.77-.41-1.63-.41-2.58v-11.09h-1.82c-.33,0-.61-.11-.85-.32-.24-.21-.35-.53-.35-.94v-2.5l3.41-.66,1.26-5.23c.17-.66.63-.99,1.41-.99h3.35v6.27h5.32v4.38h-5.32v10.65c0,.5.12.91.36,1.23.24.32.59.49,1.04.49.23,0,.43-.02.59-.07.16-.05.3-.1.41-.17.12-.06.23-.12.33-.17.1-.05.22-.07.36-.07.19,0,.35.04.47.13.12.09.24.23.36.42l1.94,3.04c-.83.62-1.76,1.09-2.79,1.4-1.03.31-2.1.47-3.21.47Z"/>
    </g>
  </g>
</svg>